<svg xmlns="http://www.w3.org/2000/svg" xmlns:xlink="http://www.w3.org/1999/xlink" version="1.1" width="256" height="256" viewBox="0 0 256 256" xml:space="preserve">

<defs>
</defs>
<g style="stroke: none; stroke-width: 0; stroke-dasharray: none; stroke-linecap: butt; stroke-linejoin: miter; stroke-miterlimit: 10; fill: none; fill-rule: nonzero; opacity: 1;" transform="translate(1.4065934065934016 1.4065934065934016) scale(2.81 2.81)" >
	<path d="M 2.081 90 c -0.256 0 -0.512 -0.098 -0.707 -0.293 c -0.391 -0.391 -0.391 -1.023 0 -1.414 l 18.544 -18.544 c 0.391 -0.391 1.023 -0.391 1.414 0 s 0.391 1.023 0 1.414 L 2.788 89.707 C 2.593 89.902 2.337 90 2.081 90 z" style="stroke: none; stroke-width: 1; stroke-dasharray: none; stroke-linecap: butt; stroke-linejoin: miter; stroke-miterlimit: 10; fill: rgb(124, 94, 250); fill-rule: nonzero; opacity: 1;" transform=" matrix(1 0 0 1 0 0) " stroke-linecap="round" />
	<path d="M 3.169 72.544 c -0.256 0 -0.512 -0.098 -0.707 -0.293 c -0.391 -0.391 -0.391 -1.023 0 -1.414 l 9.272 -9.272 c 0.391 -0.391 1.023 -0.391 1.414 0 s 0.391 1.023 0 1.414 l -9.272 9.272 C 3.681 72.446 3.425 72.544 3.169 72.544 z" style="stroke: none; stroke-width: 1; stroke-dasharray: none; stroke-linecap: butt; stroke-linejoin: miter; stroke-miterlimit: 10; fill: rgb(124, 94, 250); fill-rule: nonzero; opacity: 1;" transform=" matrix(1 0 0 1 0 0) " stroke-linecap="round" />
	<path d="M 19.537 88.912 c -0.256 0 -0.512 -0.098 -0.707 -0.293 c -0.391 -0.391 -0.391 -1.023 0 -1.414 l 9.272 -9.272 c 0.391 -0.391 1.023 -0.391 1.414 0 s 0.391 1.023 0 1.414 l -9.272 9.272 C 20.049 88.814 19.793 88.912 19.537 88.912 z" style="stroke: none; stroke-width: 1; stroke-dasharray: none; stroke-linecap: butt; stroke-linejoin: miter; stroke-miterlimit: 10; fill: rgb(124, 94, 250); fill-rule: nonzero; opacity: 1;" transform=" matrix(1 0 0 1 0 0) " stroke-linecap="round" />
	<path d="M 87.282 25.947 l -0.65 -0.649 c -0.978 -0.977 -2.229 -1.518 -3.509 -1.621 c 1.864 -2.201 1.759 -5.512 -0.316 -7.587 l -0.649 -0.649 c -1.379 -1.379 -3.304 -1.888 -5.088 -1.527 c 0.271 -1.714 -0.252 -3.53 -1.57 -4.848 l -0.649 -0.65 c -1.437 -1.437 -3.469 -1.931 -5.306 -1.479 c 0.201 -1.655 -0.331 -3.383 -1.599 -4.65 l -0.649 -0.649 C 66.24 0.582 64.832 0 63.331 0 C 63.33 0 63.33 0 63.33 0 c -1.501 0 -2.909 0.582 -3.966 1.638 l -12.819 12.86 C 39.227 5.634 33.782 1.636 29.399 1.894 c -2.513 0.156 -4.633 1.676 -6.481 4.645 l -0.4 0.642 l 0.509 0.56 c 6.731 7.405 11.958 21.3 8.981 26.799 l -0.495 -0.495 c -0.665 -0.666 -1.576 -1.005 -2.558 -0.945 c -0.942 0.053 -1.84 0.463 -2.53 1.153 L 12.782 47.896 c -0.69 0.689 -1.1 1.589 -1.153 2.53 c -0.056 0.984 0.28 1.893 0.945 2.558 l 25.568 25.568 c 0.637 0.637 1.483 0.951 2.353 0.951 c 0.969 0 1.966 -0.39 2.736 -1.159 L 56.873 64.7 c 0.69 -0.689 1.101 -1.589 1.154 -2.53 c 0.056 -0.984 -0.28 -1.893 -0.945 -2.558 l -0.051 -0.051 c 3.704 -0.761 8.281 -3.528 11.883 -7.316 l 18.368 -18.367 C 89.469 31.691 89.469 28.134 87.282 25.947 z M 85.868 32.464 L 67.482 50.849 c -3.963 4.168 -9.312 7.063 -12.616 6.916 l -2.585 -0.123 l 3.387 3.385 c 0.257 0.257 0.386 0.623 0.362 1.03 c -0.025 0.45 -0.229 0.887 -0.571 1.229 L 41.816 76.93 c -0.669 0.666 -1.705 0.762 -2.26 0.208 L 13.988 51.569 c -0.257 -0.257 -0.385 -0.623 -0.362 -1.03 c 0.025 -0.45 0.228 -0.887 0.571 -1.229 l 13.643 -13.643 c 0.343 -0.343 0.779 -0.545 1.229 -0.571 c 0.031 -0.002 0.062 -0.002 0.093 -0.002 c 0.37 0 0.7 0.128 0.938 0.365 l 2.084 2.084 l 0 0 L 44.111 49.47 c 0.195 0.195 0.451 0.293 0.707 0.293 s 0.512 -0.098 0.707 -0.293 c 0.391 -0.391 0.391 -1.023 0 -1.414 L 33.459 35.99 c 4.211 -6.438 -1.865 -21.37 -8.438 -29.013 c 1.369 -1.973 2.847 -2.984 4.502 -3.087 c 3.765 -0.245 9.04 3.931 16.171 12.728 l 0.7 0.864 L 60.779 3.051 C 61.457 2.374 62.363 2 63.33 2 c 0.968 0 1.874 0.374 2.552 1.051 l 0.649 0.649 c 1.406 1.407 1.406 3.696 0 5.103 l -5.41 5.41 c -0.391 0.391 -0.391 1.023 0 1.414 c 0.195 0.195 0.451 0.293 0.707 0.293 s 0.512 -0.098 0.707 -0.293 l 5.41 -5.41 l 0.388 -0.388 c 1.406 -1.406 3.696 -1.407 5.103 0 l 0.649 0.65 c 1.406 1.407 1.406 3.695 0 5.102 l 0 0 c 0 0 0 0 0 0 l -5.798 5.798 c -0.391 0.391 -0.391 1.023 0 1.414 c 0.195 0.195 0.451 0.293 0.707 0.293 s 0.512 -0.098 0.707 -0.293 l 5.797 -5.797 l 0.001 -0.001 l 0.142 -0.142 c 1.406 -1.405 3.696 -1.406 5.103 0 l 0.649 0.649 c 1.406 1.407 1.406 3.696 0 5.103 l -2.69 2.691 l -3.249 3.248 c -0.391 0.39 -0.391 1.023 0 1.414 c 0.195 0.195 0.451 0.293 0.707 0.293 s 0.512 -0.098 0.707 -0.293 l 3.249 -3.248 c 1.406 -1.406 3.695 -1.407 5.102 0 l 0.65 0.649 c 0.678 0.678 1.051 1.584 1.051 2.551 S 86.546 31.786 85.868 32.464 z" style="stroke: none; stroke-width: 1; stroke-dasharray: none; stroke-linecap: butt; stroke-linejoin: miter; stroke-miterlimit: 10; fill: rgb(124, 94, 250); fill-rule: nonzero; opacity: 1;" transform=" matrix(1 0 0 1 0 0) " stroke-linecap="round" />
	<path d="M 41.741 67.972 c -1.384 0 -2.685 -0.539 -3.663 -1.518 c -0.979 -0.979 -1.518 -2.279 -1.518 -3.663 s 0.539 -2.685 1.518 -3.662 c 0.978 -0.979 2.279 -1.518 3.663 -1.518 c 1.383 0 2.684 0.539 3.663 1.518 l 0 0 l 0 0 l 0 0 c 0.979 0.979 1.518 2.278 1.518 3.662 s -0.539 2.685 -1.518 3.663 C 44.425 67.433 43.125 67.972 41.741 67.972 z M 41.741 59.611 c -0.849 0 -1.648 0.331 -2.249 0.932 s -0.932 1.399 -0.932 2.248 c 0 0.85 0.331 1.648 0.932 2.249 c 1.201 1.201 3.296 1.201 4.497 0 c 0.601 -0.601 0.932 -1.399 0.932 -2.249 c 0 -0.849 -0.331 -1.647 -0.932 -2.248 l 0 0 C 43.389 59.942 42.59 59.611 41.741 59.611 z" style="stroke: none; stroke-width: 1; stroke-dasharray: none; stroke-linecap: butt; stroke-linejoin: miter; stroke-miterlimit: 10; fill: rgb(124, 94, 250); fill-rule: nonzero; opacity: 1;" transform=" matrix(1 0 0 1 0 0) " stroke-linecap="round" />
</g>
</svg>