<svg width="80" height="80" viewBox="0 0 80 80" fill="none" xmlns="http://www.w3.org/2000/svg">
<path d="M0 0H60C71.0457 0 80 8.95431 80 20V60C80 71.0457 71.0457 80 60 80H0V0Z" fill="#7C5DFA"/>
<mask id="mask0_1_259" style="mask-type:luminance" maskUnits="userSpaceOnUse" x="0" y="0" width="80" height="80">
<path d="M0 0H60C71.0457 0 80 8.95431 80 20V60C80 71.0457 71.0457 80 60 80H0V0Z" fill="white"/>
</mask>
<g mask="url(#mask0_1_259)">
<path d="M80 40.3887H20C8.95431 40.3887 0 49.343 0 60.3887V100.389C0 111.434 8.95431 120.389 20 120.389H80V40.3887Z" fill="#9277FF"/>
</g>
<path fill-rule="evenodd" clip-rule="evenodd" d="M33.288 26L40.5 40.3876L47.712 26C52.64 28.5753 56 33.7075 56 39.6185C56 48.1134 49.0604 54.9999 40.5 54.9999C31.9396 54.9999 25 48.1134 25 39.6185C25 33.7075 28.36 28.5753 33.288 26Z" fill="white"/>
</svg>
